<?xml version="1.0" standalone="no"?>
<!DOCTYPE svg PUBLIC "-//W3C//DTD SVG 20010904//EN"
 "http://www.w3.org/TR/2001/REC-SVG-20010904/DTD/svg10.dtd">
<svg version="1.0" xmlns="http://www.w3.org/2000/svg"
 width="624.000000pt" height="624.000000pt" viewBox="0 0 624.000000 624.000000"
 preserveAspectRatio="xMidYMid meet">
<metadata>
Created by potrace 1.11, written by Peter Selinger 2001-2013
</metadata>
<g transform="translate(0.000000,624.000000) scale(0.100000,-0.100000)"
fill="#000000" stroke="none">
<path d="M2618 6005 c-103 -28 -212 -114 -252 -199 -13 -28 -27 -77 -31 -108
-3 -32 -11 -58 -16 -58 -27 0 -184 -72 -245 -112 -91 -61 -110 -94 -99 -174 5
-33 9 -82 9 -111 1 -50 2 -51 20 -35 18 16 19 16 11 -13 -5 -16 -9 -40 -10
-52 -2 -30 -14 -41 -25 -23 -14 23 -25 -57 -11 -86 8 -18 8 -31 1 -45 -14 -24
-5 -24 31 2 48 34 157 79 174 72 15 -5 86 7 223 37 53 12 75 13 68 1 -8 -12
175 -20 227 -10 24 4 68 6 100 4 44 -2 57 0 57 11 0 15 25 12 78 -7 13 -5 40
-9 60 -9 20 0 54 -5 75 -11 22 -6 89 -12 150 -14 62 -1 128 -8 147 -15 19 -7
42 -13 50 -14 47 -7 93 -32 127 -69 30 -34 34 -42 20 -45 -9 -2 -30 6 -46 17
-29 21 -29 21 -24 1 4 -16 0 -20 -18 -20 -13 0 -32 7 -42 14 -15 12 -22 12
-44 1 -26 -14 -54 -8 -68 15 -3 6 -17 7 -31 4 -37 -9 -114 5 -114 21 0 11 -18
13 -85 12 -62 -1 -88 2 -94 12 -8 12 -53 18 -166 21 -35 0 -38 2 -23 13 14 11
0 15 -90 24 -67 8 -126 8 -157 3 -27 -5 -69 -9 -92 -9 -33 -1 -41 -4 -37 -16
6 -16 4 -16 -118 -20 -32 -1 -64 -8 -73 -15 -8 -7 -38 -13 -67 -14 -29 -1 -67
-10 -85 -19 -18 -9 -45 -17 -60 -17 -15 0 -35 -5 -43 -11 -11 -8 0 -9 40 -5
30 3 56 10 58 16 5 13 39 13 47 0 3 -5 -2 -10 -12 -10 -11 0 -23 -4 -29 -9 -5
-5 -45 -14 -89 -20 -78 -11 -157 -35 -183 -54 -23 -18 3 -28 34 -13 16 8 49
17 74 20 l45 6 -47 -15 c-27 -9 -48 -18 -48 -22 0 -3 22 -3 50 0 31 4 59 1 73
-6 23 -12 24 -14 11 -62 -7 -28 -13 -59 -12 -70 0 -11 4 -1 9 22 10 40 39 69
39 37 0 -8 5 -12 11 -8 6 3 4 -4 -4 -17 -35 -57 -51 -214 -26 -261 6 -11 11
-44 12 -73 2 -30 8 -60 14 -66 9 -9 9 -2 3 25 -4 20 -6 55 -2 78 3 30 2 39 -6
34 -7 -4 -12 -1 -12 8 0 8 5 18 10 21 6 3 10 13 10 21 0 9 -5 12 -11 8 -8 -5
-8 -1 0 14 17 32 13 50 -6 27 -16 -20 -16 -20 -9 0 4 11 10 42 13 70 2 27 11
57 19 66 8 9 11 19 7 22 -3 4 -2 7 4 7 6 0 14 12 17 26 l7 26 35 -21 c32 -19
35 -19 41 -4 6 15 7 14 13 -3 4 -10 1 -34 -7 -52 -10 -24 -10 -32 -2 -26 8 5
10 -2 7 -26 -5 -31 -4 -32 10 -14 10 13 16 15 19 7 3 -10 10 -10 25 -2 15 8
19 8 14 0 -5 -7 3 -11 21 -11 l28 -1 -25 -18 c-14 -11 -35 -28 -48 -39 -22
-19 -22 -21 -5 -31 16 -9 14 -10 -12 -11 -23 0 -27 -3 -15 -10 12 -8 12 -12 2
-18 -10 -7 -10 -11 3 -22 10 -8 19 -9 28 -3 6 5 31 10 55 11 32 1 42 -3 42
-15 0 -8 -6 -13 -13 -10 -21 8 -58 -27 -72 -66 -7 -20 -10 -39 -7 -42 10 -10
35 -5 46 9 19 24 136 20 136 -4 0 -5 10 -6 22 -2 14 3 19 2 14 -6 -4 -7 -16
-12 -26 -12 -10 0 -22 -4 -25 -10 -3 -5 3 -10 14 -10 12 0 21 -4 21 -10 0 -5
-9 -10 -19 -10 -11 0 -22 -4 -25 -9 -4 -5 3 -7 14 -4 12 3 22 0 25 -9 4 -10
15 -13 32 -10 21 4 25 2 20 -12 -4 -9 -4 -16 -1 -16 14 0 74 33 74 41 0 5 7 6
15 3 8 -4 17 1 21 10 6 15 28 17 50 4 7 -5 10 1 6 17 -3 17 1 27 12 31 24 9
31 69 11 100 -16 25 -16 26 12 50 30 26 43 30 43 14 0 -5 5 -10 12 -10 6 0 4
8 -6 19 -10 11 -13 20 -7 22 6 2 12 30 13 61 1 31 6 54 10 52 4 -3 16 0 27 5
15 8 20 7 25 -5 9 -24 7 -46 -4 -39 -13 8 -13 -11 1 -37 6 -12 7 -23 2 -27
-13 -9 -14 -53 -1 -45 7 4 8 2 4 -4 -4 -7 0 -27 9 -46 14 -29 15 -41 5 -71 -6
-19 -16 -33 -20 -30 -5 3 -18 -3 -29 -14 -19 -19 -19 -20 17 -58 21 -21 54
-49 75 -63 34 -23 37 -28 33 -62 -3 -22 0 -38 6 -40 8 -3 9 -11 3 -24 -5 -10
-10 -23 -11 -29 -6 -29 -17 -55 -24 -55 -5 0 -25 -16 -46 -35 -20 -19 -51 -39
-68 -43 -40 -11 -44 -33 -12 -74 34 -46 79 -71 96 -55 10 9 11 9 6 0 -8 -15
10 -18 18 -4 3 5 15 7 26 4 11 -3 18 -9 15 -13 -3 -5 -1 -11 4 -14 5 -4 12 3
16 14 8 26 25 26 18 1 -5 -22 -29 -35 -45 -25 -5 4 -22 -7 -37 -24 -27 -28
-30 -29 -97 -25 -45 3 -90 -1 -128 -11 -32 -9 -63 -13 -68 -10 -15 10 -69 14
-63 5 3 -5 -2 -11 -10 -15 -18 -7 -20 -46 -2 -46 6 0 26 7 42 16 24 13 64 17
208 18 l177 1 31 -29 c30 -28 30 -28 10 -42 -11 -8 -58 -19 -103 -25 -101 -13
-148 -33 -141 -60 3 -10 9 -17 13 -14 4 2 36 -4 72 -14 57 -17 67 -17 92 -4
29 15 51 9 26 -7 -9 -6 -10 -10 -3 -10 6 0 18 8 25 18 7 10 21 21 31 25 10 4
15 11 12 17 -3 5 -2 10 3 10 6 0 13 -7 16 -16 8 -22 8 -26 -4 -19 -5 3 -10 1
-10 -5 0 -7 6 -10 13 -7 6 2 12 16 12 30 -1 16 5 27 12 27 7 0 13 -5 13 -10 0
-7 5 -6 13 1 13 13 15 48 3 67 -4 7 -4 13 1 13 4 1 13 2 18 4 6 1 18 3 27 3
11 1 15 7 12 17 -7 17 11 21 21 5 3 -5 17 -10 29 -10 19 0 25 -7 30 -35 4 -20
4 -40 1 -45 -6 -10 8 -14 34 -10 13 1 13 -1 2 -14 -7 -9 -17 -13 -22 -10 -5 3
-9 -4 -9 -15 0 -11 5 -23 10 -26 16 -10 12 -25 -5 -19 -12 5 -14 2 -8 -12 6
-17 5 -18 -12 -4 -16 14 -17 13 -11 -7 5 -16 2 -23 -14 -28 -13 -4 -23 -18
-27 -36 -3 -16 -10 -29 -15 -29 -5 0 -8 -12 -5 -27 2 -16 2 -22 0 -15 -3 6 -6
12 -7 12 -2 0 -30 -27 -63 -60 -33 -33 -65 -60 -72 -60 -7 0 -10 4 -6 9 3 5 1
12 -5 16 -5 3 -10 3 -10 -2 0 -4 -12 -21 -26 -38 -14 -16 -29 -36 -34 -44 -4
-9 -28 -15 -60 -17 l-52 -3 17 25 c16 24 16 25 -10 21 -14 -2 -26 -7 -26 -13
0 -14 -39 -25 -56 -15 -9 4 -25 6 -36 3 -13 -3 -18 -1 -13 6 5 8 2 10 -8 6 -9
-3 -16 -11 -16 -16 0 -11 -72 42 -107 79 -12 13 -27 23 -34 23 -15 0 22 -33
124 -111 43 -32 75 -59 72 -59 -4 0 1 -7 9 -16 9 -8 22 -12 28 -8 7 4 9 3 5
-1 -4 -5 11 -16 34 -24 22 -9 41 -20 41 -26 0 -5 6 -17 14 -26 13 -14 13 -18
-1 -29 -21 -17 -11 -27 36 -35 29 -5 37 -10 28 -16 -8 -5 -23 -6 -34 -3 -39
11 -76 27 -71 32 4 3 -82 63 -151 106 -31 18 -7 -6 61 -62 85 -70 143 -102
184 -102 17 0 61 22 117 59 50 32 135 82 190 111 193 102 332 213 439 353 53
70 100 157 75 142 -8 -6 -9 2 -3 26 4 19 8 48 8 64 1 17 5 36 10 43 6 10 0 9
-22 -2 -37 -19 -46 -20 -36 -4 5 8 1 9 -12 4 -15 -6 -17 -5 -6 5 16 17 15 26
-3 26 -8 0 -15 -7 -16 -16 0 -10 -2 -12 -6 -3 -2 6 -9 12 -15 12 -6 0 -7 -8
-3 -17 20 -50 20 -49 2 -34 -9 7 -15 17 -12 21 3 5 -8 2 -25 -6 -16 -9 -30
-23 -29 -32 0 -14 2 -14 8 2 7 18 8 18 14 2 4 -9 1 -23 -5 -30 -10 -10 -16 -5
-31 26 -11 21 -24 38 -30 38 -7 0 -7 -4 1 -12 7 -7 12 -19 12 -27 0 -8 -3 -12
-6 -8 -3 3 -17 2 -30 -3 -24 -9 -34 2 -14 15 6 3 10 11 10 17 0 7 -6 6 -15 -2
-12 -10 -15 -10 -15 3 0 9 5 19 10 22 16 10 12 32 -6 39 -22 8 -33 -3 -14 -14
12 -8 12 -10 -3 -16 -9 -3 -17 -13 -17 -21 0 -8 -6 -13 -12 -10 -7 2 -12 10
-10 17 3 11 0 11 -12 0 -17 -13 -22 -25 -7 -16 5 3 12 -1 15 -11 8 -20 -17
-48 -44 -50 -18 -2 -19 1 -9 13 10 12 9 13 -4 8 -23 -8 -43 6 -26 18 11 8 10
9 -3 4 -24 -7 -48 3 -48 21 0 9 -6 13 -15 9 -16 -6 -19 12 -9 52 5 16 12 21
24 17 14 -4 17 1 16 29 -1 18 -7 40 -14 48 -6 8 -9 17 -6 20 3 3 -6 25 -19 49
-18 33 -22 51 -16 72 5 18 4 27 -4 27 -9 0 -9 2 0 8 18 11 20 47 3 47 -8 0
-14 -7 -12 -15 2 -10 -4 -7 -18 8 -11 12 -18 27 -14 34 5 7 3 8 -5 4 -8 -6
-11 -2 -9 10 2 12 -2 18 -10 16 -8 -1 -11 2 -7 8 3 6 -8 24 -24 41 -17 17 -28
35 -25 41 3 5 -3 12 -15 15 -25 6 -27 16 -7 32 11 10 16 9 23 -3 4 -8 15 -16
23 -18 8 -2 18 -7 22 -13 4 -5 10 -2 13 8 6 13 11 15 28 6 17 -10 19 -9 14 5
-3 8 -1 18 5 22 7 4 8 3 4 -4 -4 -7 -3 -12 3 -12 5 0 13 5 16 10 3 6 15 10 25
10 14 0 18 -5 14 -17 -5 -14 -4 -15 4 -4 11 16 36 5 26 -11 -4 -7 -2 -8 5 -4
12 8 8 19 -17 49 -10 12 -11 17 -3 17 7 0 9 5 6 10 -3 6 3 10 15 10 12 0 19 4
16 8 -3 5 5 8 17 8 12 -1 26 -7 30 -14 6 -9 12 -10 21 -3 10 8 18 5 32 -12
l19 -22 -22 19 c-20 16 -23 17 -23 3 0 -9 9 -18 20 -22 23 -7 60 -56 60 -78 0
-9 5 -19 11 -23 8 -5 10 1 6 18 -5 20 -3 25 10 24 8 0 18 4 20 9 2 6 -6 11
-17 11 -11 0 -20 -5 -21 -11 0 -5 -5 3 -9 19 -7 23 -5 32 8 42 9 7 21 10 26 7
5 -4 6 -1 3 4 -4 6 4 11 18 11 25 0 43 -27 26 -37 -6 -4 -6 -12 -1 -21 8 -12
10 -11 10 4 0 16 3 17 12 8 23 -23 31 -12 8 12 -12 14 -20 32 -17 40 3 8 1 17
-6 20 -7 4 3 4 21 1 17 -2 32 -1 32 4 0 12 -29 23 -41 15 -5 -3 -10 2 -10 10
-1 9 -2 21 -3 27 -1 6 17 13 38 15 49 4 73 24 31 25 -26 0 -27 2 -10 9 22 9
18 10 -50 13 -22 1 -41 7 -42 12 -1 6 11 9 27 9 17 -1 28 1 25 6 -2 4 7 12 22
19 21 10 28 9 35 -1 7 -10 9 -10 5 2 -5 16 -5 16 -89 7 -61 -8 -74 1 -34 23
14 7 22 18 20 25 -3 6 3 18 12 26 16 12 17 12 12 -3 -4 -9 0 -24 7 -35 13 -16
14 -16 15 -2 0 10 11 36 24 60 23 40 24 44 8 57 -9 7 -12 11 -6 8 7 -3 14 3
17 14 4 14 10 18 23 13 13 -5 15 -3 9 7 -6 10 -4 12 8 7 12 -4 14 -2 10 11 -5
13 -3 15 7 5 13 -12 71 -282 64 -295 -3 -4 5 -12 18 -19 16 -9 23 -9 26 0 2 6
9 11 16 11 15 0 17 -30 4 -47 -7 -8 -6 -29 2 -60 11 -44 11 -51 -9 -83 -21
-35 -28 -75 -13 -84 12 -7 53 28 56 49 2 11 14 22 31 26 29 8 74 49 54 49 -9
0 -9 3 0 14 6 7 9 20 6 28 -3 7 1 22 9 33 15 19 15 19 16 -6 0 -44 -30 -128
-51 -143 -22 -15 -24 -66 -2 -73 12 -4 63 95 63 123 0 10 3 14 7 10 16 -16 69
239 64 311 -1 27 -44 42 -66 23 -10 -8 -15 -9 -15 -2 0 6 5 14 10 17 6 4 8 11
4 16 -3 5 0 16 6 24 10 12 9 16 -3 21 -9 3 -18 12 -21 20 -3 9 -1 12 4 9 18
-11 11 18 -9 39 -25 27 -63 172 -55 208 3 16 13 34 22 40 9 7 32 37 50 66 52
85 43 133 -47 250 -74 98 -121 139 -231 202 -142 81 -282 135 -456 177 -16 4
-25 20 -38 66 -62 223 -314 364 -538 302z m6 -117 c-3 -24 -12 -53 -20 -65 -8
-13 -10 -23 -5 -23 7 0 8 -37 4 -99 -7 -115 7 -153 65 -172 46 -15 62 2 25 26
-15 10 -33 25 -39 33 -6 8 -16 12 -22 8 -9 -5 -12 6 -12 36 l0 43 20 -25 c11
-14 20 -30 20 -37 0 -7 9 -17 20 -23 16 -9 22 -7 27 6 4 12 0 21 -11 28 -52
31 -56 39 -57 108 -1 36 2 71 6 77 3 6 22 11 41 11 19 0 34 5 34 10 0 6 -11
10 -25 10 -14 0 -25 5 -25 10 0 6 12 10 26 10 23 0 25 3 19 31 -6 28 -5 30 17
27 23 -4 25 -9 13 -40 -5 -13 1 -19 27 -27 32 -9 32 -9 6 -10 -40 -1 -35 -19
7 -27 l35 -6 0 -78 0 -77 -35 -19 c-33 -18 -43 -33 -29 -47 9 -9 44 11 44 26
0 7 9 18 20 25 18 11 20 10 20 -18 0 -16 -3 -29 -7 -28 -15 4 -103 -54 -97
-64 7 -10 59 -1 85 15 41 26 50 62 45 175 -2 59 -10 124 -16 145 -6 21 -10 45
-8 53 5 22 98 -54 121 -100 l20 -38 18 23 c14 19 21 21 30 12 17 -17 24 -115
11 -152 l-11 -31 40 0 c21 0 39 -4 39 -9 0 -12 -55 -67 -87 -88 l-24 -16 31
-13 c18 -8 30 -19 28 -26 -7 -20 -57 -29 -164 -31 -75 -1 -101 -4 -97 -13 8
-21 -14 -24 -32 -4 -18 20 -65 19 -92 -2 -13 -11 -36 -1 -28 12 2 4 -39 10
-93 12 -97 5 -152 20 -152 44 0 13 22 24 51 24 15 0 12 8 -21 41 -61 63 -63
108 -3 93 22 -6 22 -4 12 26 -12 32 -8 134 5 147 3 4 16 -3 28 -15 l22 -21 17
39 c15 34 88 100 110 100 5 0 6 -19 3 -42z m-11 -525 c-13 -2 -35 -2 -50 0
-16 2 -5 4 22 4 28 0 40 -2 28 -4z m-114 -7 c-2 -2 -24 -6 -49 -10 -31 -4 -40
-3 -30 4 13 9 89 15 79 6z m-22 -56 c5 0 19 7 31 16 28 20 28 11 0 -17 -18
-17 -19 -20 -4 -12 10 6 27 8 36 6 23 -6 36 15 16 23 -26 10 -18 19 20 22 23
1 46 -5 64 -18 28 -20 28 -21 13 -51 -12 -25 -13 -33 -3 -39 17 -11 -8 -17
-95 -24 -153 -13 -160 -12 -157 9 2 11 9 23 16 27 7 4 11 22 10 42 -2 26 1 36
11 36 8 0 15 6 16 13 0 6 4 2 9 -10 5 -13 13 -23 17 -23z m-194 -337 c-7 -2
-19 -2 -25 0 -7 3 -2 5 12 5 14 0 19 -2 13 -5z m-70 -10 c-7 -2 -21 -2 -30 0
-10 3 -4 5 12 5 17 0 24 -2 18 -5z m147 -4 c-25 -4 -65 -7 -90 -7 l-45 1 40 7
c22 4 63 7 90 7 l50 0 -45 -8z m1374 -107 c3 -5 -8 -6 -25 -4 -16 2 -29 6 -29
8 0 8 49 4 54 -4z m-139 -12 l30 -8 -30 0 c-16 0 -41 4 -55 8 l-25 8 25 0 c14
0 39 -4 55 -8z m-1145 -145 c0 -8 -4 -15 -10 -15 -5 0 -7 7 -4 15 4 8 8 15 10
15 2 0 4 -7 4 -15z m120 -26 c0 -11 -4 -17 -10 -14 -5 3 -10 13 -10 21 0 8 5
14 10 14 6 0 10 -9 10 -21z m-50 1 c0 -5 -7 -10 -16 -10 -8 0 -12 5 -9 10 3 6
10 10 16 10 5 0 9 -4 9 -10z m320 -37 c-10 -16 -11 -16 -6 -1 3 10 1 20 -4 23
-6 4 -10 11 -10 16 0 6 7 3 16 -5 12 -12 13 -20 4 -33z m-444 8 c0 -13 -6 -17
-20 -13 -18 5 -18 6 -1 19 11 7 19 13 20 13 0 0 1 -8 1 -19z m241 5 c-3 -8 0
-19 6 -25 16 -16 -9 -31 -45 -27 -14 2 -32 0 -39 -5 -7 -4 -19 -4 -25 2 -7 6
-21 6 -37 0 -14 -5 -28 -7 -31 -3 -4 3 -18 6 -31 7 -14 0 -25 4 -25 10 0 13
49 16 72 4 22 -12 23 -6 3 14 -12 13 -11 15 9 19 17 4 23 1 19 -9 -6 -15 32
-19 42 -3 3 5 12 7 19 4 7 -3 16 1 19 8 2 8 15 14 27 15 14 1 20 -3 17 -11z
m854 -98 c-14 -24 -31 -37 -31 -23 0 16 24 52 34 52 10 0 9 -7 -3 -29z m-1221
-34 c0 -8 -5 -12 -10 -9 -6 4 -8 11 -5 16 9 14 15 11 15 -7z m-40 2 c0 -3 -4
-8 -10 -11 -5 -3 -10 -1 -10 4 0 6 5 11 10 11 6 0 10 -2 10 -4z m127 -22 c-3
-3 -12 -4 -19 -1 -8 3 -5 6 6 6 11 1 17 -2 13 -5z m1459 -82 c-14 -15 -15 -13
-6 18 6 19 11 37 11 40 1 3 4 -6 6 -19 3 -13 -2 -30 -11 -39z m103 -44 c1 -10
-4 -18 -10 -18 -6 0 -9 8 -7 18 2 9 -5 24 -16 33 -19 16 -19 16 0 35 19 19 19
19 26 -16 4 -19 7 -43 7 -52z m-478 -2 c20 12 59 -6 59 -26 0 -11 -5 -20 -11
-20 -17 0 -69 40 -68 53 0 8 2 8 6 -1 2 -6 9 -9 14 -6z m-51 -68 c0 -6 -6 -5
-15 2 -8 7 -15 14 -15 16 0 2 7 1 15 -2 8 -4 15 -11 15 -16z m58 10 c16 -16
15 -28 -2 -28 -8 0 -17 -6 -19 -12 -3 -7 -6 2 -6 20 -1 34 7 40 27 20z m-428
-89 c0 -5 -4 -9 -10 -9 -5 0 -10 7 -10 16 0 8 5 12 10 9 6 -3 10 -10 10 -16z
m-114 -186 c-11 -11 -17 4 -9 23 7 18 8 18 11 1 2 -10 1 -21 -2 -24z m109
-183 c-3 -5 -12 -10 -18 -10 -7 0 -6 4 3 10 19 12 23 12 15 0z m13 -30 c-13
-20 -28 -27 -28 -12 0 10 22 32 32 32 5 0 3 -9 -4 -20z m129 -27 c-11 -10 -27
8 -27 30 l0 21 16 -22 c9 -13 14 -26 11 -29z m-172 26 c-4 -6 1 -17 11 -24 15
-11 16 -14 4 -14 -8 0 -23 4 -34 8 -17 7 -17 8 -2 24 20 19 31 23 21 6z m195
1 c0 -5 -4 -10 -10 -10 -5 0 -10 5 -10 10 0 6 5 10 10 10 6 0 10 -4 10 -10z
m-146 -166 c4 -10 1 -14 -6 -12 -15 5 -23 28 -10 28 5 0 13 -7 16 -16z m356
-34 c0 -5 -5 -10 -11 -10 -5 0 -7 5 -4 10 3 6 8 10 11 10 2 0 4 -4 4 -10z
m-115 -31 c11 -17 -1 -21 -15 -4 -8 9 -8 15 -2 15 6 0 14 -5 17 -11z m-391
-81 c-3 -4 -12 -8 -20 -8 -8 0 -13 4 -10 8 3 5 12 9 20 9 8 0 13 -4 10 -9z
m291 -98 c-3 -5 0 -10 7 -11 7 -1 2 -4 -12 -8 -31 -10 -36 -6 -19 13 16 17 34
22 24 6z m-499 -291 c8 -14 -10 -11 -32 6 -18 13 -18 14 4 8 12 -3 25 -9 28
-14z m69 -30 c5 -5 -5 -4 -23 2 -17 6 -32 13 -32 16 0 7 43 -8 55 -18z"/>
<path d="M2665 5781 c-5 -13 -4 -13 6 -4 10 10 16 10 29 -2 14 -13 16 -12 17
4 2 24 -43 26 -52 2z"/>
<path d="M2746 5774 c-5 -14 -4 -15 9 -4 17 14 19 20 6 20 -5 0 -12 -7 -15
-16z"/>
<path d="M2780 5786 c0 -2 7 -9 15 -16 12 -10 15 -10 15 4 0 9 -7 16 -15 16
-8 0 -15 -2 -15 -4z"/>
<path d="M2660 5690 c-11 -7 -12 -12 -4 -20 8 -8 14 -7 23 4 14 17 1 28 -19
16z"/>
<path d="M2780 5691 c0 -5 5 -13 10 -16 6 -3 10 -2 10 4 0 5 -4 13 -10 16 -5
3 -10 2 -10 -4z"/>
<path d="M2750 5656 c0 -15 -5 -17 -26 -12 -17 5 -23 3 -19 -4 7 -12 35 -13
52 -2 8 5 9 13 3 22 -8 12 -10 12 -10 -4z"/>
<path d="M2598 5293 c7 -3 16 -2 19 1 4 3 -2 6 -13 5 -11 0 -14 -3 -6 -6z"/>
<path d="M1991 4654 c0 -11 3 -14 6 -6 3 7 2 16 -1 19 -3 4 -6 -2 -5 -13z"/>
<path d="M2745 4580 c-3 -5 -1 -10 4 -10 6 0 11 5 11 10 0 6 -2 10 -4 10 -3 0
-8 -4 -11 -10z"/>
<path d="M2130 4536 c0 -14 4 -27 10 -31 5 -3 8 7 7 25 -2 36 -17 41 -17 6z"/>
<path d="M2746 4449 c6 -11 31 -12 37 -1 3 4 -6 8 -19 8 -13 1 -21 -2 -18 -7z"/>
<path d="M1940 4405 c-12 -15 4 -55 41 -100 9 -11 24 -33 32 -50 l16 -30 1 52
c0 66 -10 93 -48 120 -26 19 -32 20 -42 8z"/>
<path d="M3280 4259 c0 -5 5 -7 10 -4 6 3 10 8 10 11 0 2 -4 4 -10 4 -5 0 -10
-5 -10 -11z"/>
<path d="M3296 4241 c-4 -5 3 -7 14 -4 23 6 26 13 6 13 -8 0 -17 -4 -20 -9z"/>
<path d="M3590 4220 c0 -5 5 -10 11 -10 5 0 7 5 4 10 -3 6 -8 10 -11 10 -2 0
-4 -4 -4 -10z"/>
<path d="M2542 4115 c-12 -14 -22 -28 -22 -33 0 -4 -12 -18 -26 -32 -24 -22
-43 -57 -48 -86 -1 -7 -7 -18 -13 -25 -16 -20 -25 -85 -10 -70 6 6 19 11 29
11 10 0 21 8 25 18 3 9 20 34 37 56 16 21 31 53 32 70 2 17 10 48 18 68 9 21
16 40 16 43 0 12 -18 3 -38 -20z"/>
<path d="M3440 4105 c0 -11 5 -27 10 -35 8 -12 10 -12 10 5 0 11 -5 27 -10 35
-8 12 -10 12 -10 -5z"/>
<path d="M3225 4067 c-4 -10 -5 -21 -1 -24 10 -10 18 4 13 24 -4 17 -4 17 -12
0z"/>
<path d="M3387 4060 c3 -12 0 -20 -6 -20 -7 0 -9 -5 -5 -11 4 -8 9 -7 15 2 7
12 9 12 9 0 0 -8 2 -12 5 -9 8 8 -5 58 -15 58 -5 0 -6 -9 -3 -20z"/>
<path d="M3560 4059 c0 -5 5 -7 10 -4 6 3 10 8 10 11 0 2 -4 4 -10 4 -5 0 -10
-5 -10 -11z"/>
<path d="M3517 4036 c3 -14 9 -26 13 -26 11 0 6 28 -7 41 -7 7 -9 3 -6 -15z"/>
<path d="M3770 4009 c7 -11 14 -19 16 -16 7 7 -7 37 -17 37 -6 0 -5 -9 1 -21z"/>
<path d="M3274 3970 c0 -11 5 -20 11 -20 5 0 2 -5 -8 -11 -10 -6 -26 -8 -35
-4 -14 5 -14 7 -2 16 11 7 7 8 -14 5 -33 -6 -43 -13 -32 -23 4 -4 11 -1 16 7
6 8 10 10 10 4 0 -15 49 -36 62 -27 7 4 9 0 5 -10 -3 -10 -2 -17 3 -17 5 0 6
-7 3 -17 -4 -11 -3 -14 6 -9 6 4 11 13 10 19 -1 7 1 20 6 31 5 10 4 21 -2 25
-6 3 -12 15 -14 25 -5 26 -25 31 -25 6z"/>
<path d="M2600 3972 c0 -13 49 -56 56 -50 9 9 -27 58 -42 58 -8 0 -14 -4 -14
-8z"/>
<path d="M3330 3955 c6 -8 9 -19 6 -24 -4 -5 -2 -12 4 -16 5 -3 10 0 10 7 0 9
3 9 10 -2 5 -8 10 -10 10 -5 0 16 -30 55 -42 55 -7 0 -6 -5 2 -15z"/>
<path d="M3360 3960 c0 -5 5 -10 10 -10 6 0 10 5 10 10 0 6 -4 10 -10 10 -5 0
-10 -4 -10 -10z"/>
<path d="M3747 3946 c-11 -28 -9 -35 19 -52 38 -26 47 -5 15 35 -24 29 -29 31
-34 17z"/>
<path d="M3380 3930 c0 -5 5 -10 10 -10 6 0 10 5 10 10 0 6 -4 10 -10 10 -5 0
-10 -4 -10 -10z"/>
<path d="M3240 3900 c0 -5 -7 -10 -16 -10 -8 0 -12 -5 -9 -10 4 -7 13 -7 26 0
20 11 26 30 9 30 -5 0 -10 -4 -10 -10z"/>
<path d="M3397 3883 c5 -12 1 -14 -15 -8 -13 4 -22 2 -22 -4 0 -12 20 -14 44
-5 20 8 21 20 2 27 -11 4 -13 1 -9 -10z"/>
<path d="M3267 3852 c6 -15 5 -15 -10 -3 -9 7 -17 10 -17 7 0 -10 27 -37 37
-37 4 0 6 -8 5 -17 -3 -13 -1 -14 12 -3 9 7 13 17 10 22 -7 12 29 -1 41 -15
14 -16 42 -18 51 -5 5 9 2 10 -9 6 -21 -8 -48 19 -41 41 5 14 4 14 -4 2 -9
-12 -15 -12 -46 2 -33 16 -35 16 -29 0z"/>
<path d="M3414 3811 c1 -54 15 -83 17 -35 2 42 -2 68 -10 77 -4 4 -7 -15 -7
-42z"/>
<path d="M3560 3806 c0 -8 5 -18 10 -21 6 -3 10 3 10 14 0 12 -4 21 -10 21 -5
0 -10 -6 -10 -14z"/>
<path d="M3342 3763 c-6 -11 -6 -26 -1 -38 9 -18 9 -18 5 3 -3 18 -1 22 13 17
20 -6 49 21 36 33 -4 4 -10 1 -12 -6 -4 -10 -8 -10 -18 -2 -10 9 -16 7 -23 -7z"/>
<path d="M3297 3740 c-19 -22 -21 -30 -9 -30 5 0 14 11 20 25 14 30 12 31 -11
5z"/>
<path d="M3455 3740 c-7 -11 14 -55 22 -46 3 3 0 12 -6 20 -7 8 -10 20 -6 26
3 5 4 10 1 10 -3 0 -8 -4 -11 -10z"/>
<path d="M3480 3734 c0 -3 5 -14 10 -25 11 -20 50 -27 50 -8 0 5 -4 8 -9 4 -6
-3 -15 4 -21 15 -10 18 -30 28 -30 14z"/>
<path d="M3723 3708 c2 -18 14 -55 26 -83 33 -73 36 -100 16 -153 -25 -67
-115 -222 -190 -327 -98 -138 -123 -172 -213 -274 -81 -93 -225 -279 -273
-353 -13 -21 -26 -38 -29 -38 -3 0 -39 73 -80 163 l-76 162 -59 -3 c-33 -2
-55 1 -50 5 6 4 11 16 13 26 3 17 1 17 -36 -2 -94 -48 -169 -158 -196 -284
-16 -80 -23 -90 -31 -51 -15 64 -50 165 -93 264 -87 204 -116 326 -110 476 2
69 -1 96 -13 114 l-15 23 -44 -62 c-38 -54 -55 -68 -120 -101 -126 -63 -382
-177 -440 -195 -30 -10 -86 -31 -125 -48 -38 -16 -140 -53 -225 -82 -85 -29
-186 -67 -223 -84 -38 -17 -77 -31 -86 -31 -25 0 -102 -53 -128 -88 -56 -76
-128 -249 -148 -357 -7 -38 -21 -99 -30 -135 -13 -47 -16 -86 -12 -140 l6 -75
-59 -116 c-33 -64 -73 -163 -91 -225 -53 -179 -87 -242 -157 -285 -18 -12 -51
-48 -73 -81 -23 -33 -49 -68 -58 -77 -30 -30 -71 -87 -99 -139 -20 -37 -45
-62 -91 -93 -34 -23 -74 -58 -87 -79 -22 -33 -25 -46 -22 -116 l3 -79 29 60
c39 80 146 187 221 221 32 15 83 28 118 31 l62 6 -40 -28 c-62 -42 -94 -75
-126 -132 -57 -99 -98 -253 -101 -381 l-1 -67 -7 50 -6 50 -5 -40 c-4 -31 -6
-24 -7 30 -2 84 12 179 38 252 25 72 8 68 -19 -5 -28 -75 -49 -204 -47 -297 0
-41 -3 -68 -7 -62 -5 7 -6 -13 -3 -43 4 -43 3 -50 -5 -30 -5 13 -12 74 -16
135 -9 197 42 351 151 452 33 31 50 50 36 43 -45 -24 -119 -110 -150 -175 -48
-100 -63 -188 -58 -340 3 -72 2 -119 -2 -105 -6 24 -7 24 -17 5 -10 -17 -12
-12 -13 30 -10 253 16 369 116 501 36 49 36 49 5 19 -44 -41 -118 -194 -136
-280 -10 -50 -14 -143 -15 -327 l0 -258 968 0 c740 0 971 3 980 12 9 9 12 9
12 0 0 -9 19 -12 68 -10 57 3 67 6 66 21 -1 9 5 17 12 17 12 0 12 -4 4 -20
-11 -20 -8 -20 1578 -20 l1589 0 16 53 c30 96 49 246 43 332 -20 243 -99 379
-240 410 -53 11 -19 15 55 6 41 -6 130 -12 199 -16 264 -12 311 -26 395 -116
106 -115 130 -197 122 -409 -6 -134 -12 -177 -31 -237 l-7 -23 124 0 c116 0
125 1 130 20 3 11 11 20 17 20 7 0 10 -8 7 -20 -5 -19 0 -20 64 -20 l69 0 0
115 c0 112 -1 118 -35 188 -20 39 -28 63 -18 52 29 -32 53 -21 53 25 l0 39
-41 -2 c-34 -1 -39 -4 -35 -20 4 -16 -1 -14 -25 9 -22 21 -29 36 -27 60 l2 32
45 -14 c71 -21 81 -19 81 19 l0 34 -56 -9 c-30 -5 -59 -6 -65 -3 -5 4 -9 75
-9 161 0 157 6 187 38 176 10 -3 11 16 7 82 -5 85 -16 126 -35 126 -6 0 -10
78 -10 200 0 177 2 200 16 200 11 0 14 5 9 18 -3 9 -21 69 -40 132 -18 64 -49
149 -69 190 -20 41 -29 66 -19 54 13 -14 25 -19 38 -14 11 4 23 6 26 4 4 -2
14 5 24 16 10 12 13 20 7 20 -7 0 -12 7 -12 15 0 16 -28 24 -78 23 -28 -1 -33
-4 -28 -21 3 -13 -14 -1 -50 33 -29 30 -54 55 -54 55 0 1 14 -1 31 -3 22 -3
30 -1 25 6 -4 7 11 6 41 -3 64 -20 122 -19 130 1 3 8 11 13 18 10 7 -2 16 -2
19 2 10 9 36 11 36 2 0 -4 14 -10 30 -12 26 -4 30 -1 30 19 0 19 -5 23 -32 24
-50 2 -53 3 -71 21 -18 18 -51 14 -78 -9 -10 -8 -47 -15 -96 -17 -85 -3 -108
-10 -96 -29 17 -28 -65 33 -85 64 -21 30 -23 41 -17 89 15 106 12 123 -32 191
-57 87 -72 126 -66 177 6 59 -20 153 -67 237 -45 81 -82 125 -105 125 -9 0
-26 6 -38 14 -12 8 -89 35 -172 60 -82 25 -213 68 -290 96 -77 28 -205 73
-285 100 -80 26 -183 65 -230 86 -114 50 -296 114 -323 114 -28 0 -129 89
-293 258 -65 67 -125 122 -132 122 -8 0 -11 -11 -9 -32z m-755 -1358 c-7 -10
-14 -18 -15 -16 -6 6 9 36 18 36 5 0 4 -9 -3 -20z m-722 -278 c19 -12 12 -40
-12 -46 -13 -4 -24 -16 -27 -29 -4 -22 -4 -22 -6 2 -1 19 -5 22 -26 17 -23 -6
-24 -5 -15 19 5 14 6 25 2 26 -10 1 40 17 58 18 8 0 20 -3 26 -7z m14 -72 c0
-5 -2 -10 -4 -10 -3 0 -8 5 -11 10 -3 6 -1 10 4 10 6 0 11 -4 11 -10z m60 0
c0 -5 -5 -10 -11 -10 -5 0 -7 5 -4 10 3 6 8 10 11 10 2 0 4 -4 4 -10z m663 3
c3 -5 1 -18 -4 -30 -7 -18 -16 -23 -46 -23 -31 0 -40 5 -49 25 -9 18 -9 25 0
29 18 7 95 7 99 -1z m-686 -95 c-3 -8 -6 -5 -6 6 -1 11 2 17 5 13 3 -3 4 -12
1 -19z m-269 -73 c-3 -3 -25 -8 -49 -11 -39 -5 -80 -24 -52 -24 6 0 13 -9 16
-19 4 -18 2 -18 -32 -7 -45 16 -118 30 -109 21 3 -3 32 -13 64 -22 32 -8 70
-21 84 -28 16 -8 131 -23 278 -37 244 -22 252 -23 252 -44 0 -12 -13 -93 -30
-180 -16 -88 -39 -222 -50 -298 -11 -77 -23 -143 -27 -147 -5 -3 -63 -1 -131
7 -92 9 -131 18 -158 34 -19 12 -36 21 -38 19 -1 -2 -13 -22 -26 -44 -13 -22
-28 -43 -32 -46 -5 -3 -149 -5 -320 -4 -342 3 -395 -10 -107 -26 94 -5 179
-14 190 -19 31 -17 41 -45 27 -77 -28 -62 -61 -73 -203 -73 -210 2 -385 -17
-415 -45 -23 -20 -43 -19 -65 5 -22 25 -45 26 -46 3 0 -11 -3 -13 -6 -5 -7 19
-23 14 -23 -7 0 -26 -17 -36 -35 -21 -12 10 -15 9 -16 -6 0 -11 -3 -14 -6 -6
-9 22 -22 13 -20 -15 3 -37 -20 -36 -47 0 -27 37 -25 132 4 248 23 91 22 112
-4 46 -35 -92 -48 -187 -43 -307 5 -119 21 -186 64 -277 20 -43 29 -53 49 -53
41 0 93 27 158 82 51 44 55 46 26 13 -26 -29 -30 -36 -15 -31 l20 6 -20 -16
c-27 -22 -112 -60 -155 -69 -19 -4 -51 -15 -70 -25 -19 -9 -47 -20 -62 -24
-26 -6 -30 -2 -52 44 -15 32 -27 78 -31 128 -4 42 -9 88 -11 102 -6 56 16 201
46 295 49 155 91 225 178 303 61 55 82 82 118 155 25 48 74 133 110 187 59 90
71 102 122 126 31 15 78 44 103 65 26 22 77 53 114 70 63 30 71 31 145 25 47
-4 88 -2 102 4 40 18 252 40 236 25z m200 -7 c-7 -19 -50 -21 -73 -4 -19 14
-17 15 28 16 35 0 47 -4 45 -12z m372 -74 c0 -2 -9 -4 -21 -4 -11 0 -18 4 -14
10 5 8 35 3 35 -6z m348 7 c9 -5 2 -10 -23 -14 -43 -7 -74 1 -53 14 17 11 59
11 76 0z m-281 -7 c-3 -3 -12 -4 -19 -1 -8 3 -5 6 6 6 11 1 17 -2 13 -5z m150
-10 c-3 -3 -12 -4 -19 -1 -8 3 -5 6 6 6 11 1 17 -2 13 -5z m-250 -46 c-3 -8
-6 -5 -6 6 -1 11 2 17 5 13 3 -3 4 -12 1 -19z m349 -33 c56 -28 78 -30 299
-20 137 7 156 5 220 -14 79 -25 141 -59 194 -106 34 -31 148 -95 168 -95 12 0
63 -56 141 -154 29 -36 59 -66 67 -66 18 0 75 -67 75 -89 0 -23 20 -40 95 -82
88 -49 185 -156 177 -196 -1 -6 2 -14 8 -18 5 -3 10 -13 10 -22 0 -8 9 -26 20
-40 11 -14 20 -29 20 -32 0 -4 -16 -15 -36 -26 -38 -20 -69 -67 -60 -91 3 -8
1 -14 -4 -14 -6 0 -10 -14 -10 -31 0 -19 4 -28 11 -23 7 4 9 0 5 -14 -8 -25
12 -68 48 -101 35 -32 33 -56 -6 -75 -37 -19 -41 -20 -32 -5 14 23 -20 28 -53
9 -19 -11 -35 -15 -38 -9 -4 5 -11 6 -17 3 -7 -5 -9 2 -4 22 11 43 23 50 46
29 11 -10 23 -16 26 -13 3 3 -6 15 -20 26 -24 19 -26 26 -28 126 -2 58 -4 101
-6 96 -8 -23 -22 -8 -16 18 7 25 6 26 -10 12 -14 -11 -17 -23 -12 -53 4 -24 2
-45 -5 -53 -9 -11 -8 -14 1 -14 16 0 5 -73 -17 -110 -15 -26 -17 -27 -56 -15
-27 8 -44 20 -50 36 l-10 24 -4 -22 c-3 -13 -18 -33 -35 -45 l-31 -22 6 23 c5
22 5 22 -15 4 -11 -10 -30 -17 -42 -15 -43 6 -86 24 -86 35 0 7 -9 18 -20 25
-11 7 -20 18 -20 25 0 7 -12 14 -27 15 -30 2 -34 5 -37 24 -1 7 -5 18 -9 25
-4 6 -3 14 3 18 5 3 10 12 10 18 0 7 -4 6 -10 -3 -5 -8 -10 -10 -10 -4 0 6
-12 9 -29 6 -16 -2 -32 1 -35 7 -4 6 -18 11 -32 11 -13 0 -24 5 -24 10 0 6 -7
10 -15 10 -8 0 -15 4 -15 9 0 5 -9 11 -20 14 -11 3 -20 1 -20 -4 0 -4 -7 -6
-15 -3 -8 4 -15 1 -15 -5 0 -6 -13 -10 -30 -9 -31 2 -38 16 -18 36 16 16 9 15
-43 -4 -66 -24 -287 -20 -381 6 -39 11 -79 27 -89 36 -29 26 -25 78 8 104 l27
21 -60 -6 c-32 -3 -67 -8 -77 -11 -11 -3 -28 5 -47 25 -51 50 -34 122 32 135
18 3 60 17 93 31 76 30 172 52 350 80 l140 21 -116 8 c-116 7 -188 2 -222 -16
-11 -6 -23 -6 -30 0 -17 14 -47 10 -77 -9 -29 -19 -97 -31 -105 -19 -3 5 -18
5 -33 1 -15 -5 -49 -7 -76 -6 -45 2 -47 1 -23 -11 13 -8 27 -21 31 -29 3 -10
11 -13 18 -9 10 6 11 4 0 -7 -10 -11 -39 -11 -174 -1 -89 7 -164 15 -167 17
-5 5 48 340 82 520 l23 120 85 -3 c59 -2 95 1 119 12 52 23 110 20 166 -9z
m-521 -725 c3 -6 -1 -13 -10 -16 -19 -8 -30 0 -20 15 8 14 22 14 30 1z m1953
-282 c-1 -2 12 -23 30 -46 19 -23 30 -42 25 -42 -15 0 -53 31 -48 40 3 4 -2
13 -10 20 -7 6 -11 18 -8 26 3 8 8 13 10 10 3 -2 3 -6 1 -8z m-2875 -135 c-7
-2 -19 -2 -25 0 -7 3 -2 5 12 5 14 0 19 -2 13 -5z m42 -3 c3 -6 -1 -7 -9 -4
-18 7 -21 14 -7 14 6 0 13 -4 16 -10z m18 -40 c11 -10 -3 -40 -18 -40 -8 0
-17 -5 -21 -12 -4 -7 -3 -8 4 -4 7 4 12 2 12 -3 0 -6 -4 -11 -9 -11 -5 0 -16
-3 -24 -6 -12 -4 -14 0 -10 17 4 15 3 20 -5 15 -7 -4 -12 -17 -12 -28 0 -18 4
-20 36 -15 36 6 36 6 19 -14 -21 -22 -42 -56 -51 -81 -7 -19 -31 -31 -45 -23
-5 4 -6 -1 -3 -9 3 -9 2 -16 -4 -16 -6 0 -12 6 -15 13 -6 17 13 67 25 67 7 0
7 5 1 13 -5 6 -6 26 -2 42 6 26 7 27 8 6 2 -36 14 -17 15 24 1 19 -3 37 -9 39
-6 3 -3 9 5 15 8 6 11 11 7 11 -5 0 -5 5 -2 10 7 11 84 3 98 -10z m2867 -50
c0 -5 -4 -10 -10 -10 -5 0 -10 5 -10 10 0 6 5 10 10 10 6 0 10 -4 10 -10z
m-1397 -62 c13 -3 -2 -6 -38 -7 -42 0 -55 2 -45 9 8 5 24 7 35 4 17 -4 16 -3
-3 9 -12 7 -20 16 -16 19 3 4 14 -1 25 -10 11 -9 29 -20 42 -24z m1287 -33
c14 -16 10 -18 -14 -9 -9 3 -16 10 -16 15 0 14 16 11 30 -6z m-1250 -5 c10 -6
11 -10 3 -10 -7 0 -13 -10 -13 -22 0 -18 -2 -20 -9 -8 -6 8 -7 18 -5 22 3 4 0
8 -5 8 -13 0 -15 -37 -2 -44 10 -6 -8 -106 -19 -106 -4 0 -11 -17 -15 -37 -4
-21 -12 -41 -18 -45 -18 -11 -87 -10 -87 2 0 6 3 10 8 10 4 0 7 15 8 33 1 43
15 179 20 195 4 15 111 17 134 2z m1171 -17 c13 -16 12 -17 -3 -4 -17 13 -22
21 -14 21 2 0 10 -8 17 -17z m-2731 -13 c0 -5 -5 -10 -11 -10 -5 0 -7 5 -4 10
3 6 8 10 11 10 2 0 4 -4 4 -10z m2770 -30 c0 -5 -2 -10 -4 -10 -3 0 -8 5 -11
10 -3 6 -1 10 4 10 6 0 11 -4 11 -10z m-1415 -62 c-4 -29 -12 -60 -17 -68 -7
-11 -8 -8 -4 10 3 14 8 44 12 68 10 61 17 52 9 -10z m1389 38 c-3 -8 -13 -17
-22 -21 -13 -5 -13 -2 3 15 21 24 26 25 19 6z m-4207 -43 c-3 -10 -5 -2 -5 17
0 19 2 27 5 18 2 -10 2 -26 0 -35z m3250 -15 c-3 -8 -6 -5 -6 6 -1 11 2 17 5
13 3 -3 4 -12 1 -19z m-240 -10 c-3 -8 -6 -5 -6 6 -1 11 2 17 5 13 3 -3 4 -12
1 -19z m1138 12 c-3 -5 -12 -10 -18 -10 -7 0 -6 4 3 10 19 12 23 12 15 0z
m-908 -82 c-3 -7 -5 -2 -5 12 0 14 2 19 5 13 2 -7 2 -19 0 -25z m-1263 -43
c-4 -8 -11 -15 -16 -15 -6 0 -5 6 2 15 7 8 14 15 16 15 2 0 1 -7 -2 -15z m46
5 c0 -5 -5 -10 -11 -10 -5 0 -7 5 -4 10 3 6 8 10 11 10 2 0 4 -4 4 -10z m32
-8 c3 -10 -1 -23 -8 -30 -10 -9 -12 -6 -10 16 5 40 11 44 18 14z m-39 -49 c-7
-2 -19 -2 -25 0 -7 3 -2 5 12 5 14 0 19 -2 13 -5z"/>
<path d="M2048 1577 c-35 -37 -40 -39 -75 -32 -21 4 -65 9 -98 10 -33 1 -77 7
-99 14 -21 8 -58 11 -81 8 -24 -2 -48 0 -54 6 -6 6 -14 7 -18 3 -10 -10 25
-36 49 -36 10 0 53 -10 95 -21 144 -40 222 -49 262 -33 49 20 71 52 63 90 l-7
30 -37 -39z"/>
<path d="M2350 1567 c0 -15 -37 -51 -60 -60 -12 -4 -11 -6 3 -6 22 -1 67 42
67 64 0 8 -2 15 -5 15 -3 0 -5 -6 -5 -13z"/>
<path d="M2173 1353 c-14 -3 -24 -14 -28 -33 -4 -17 -18 -39 -32 -50 -23 -18
-35 -20 -107 -14 -91 7 -156 21 -156 33 0 15 -82 30 -197 37 -103 6 -116 4
-148 -15 -20 -12 -51 -21 -68 -22 -38 -1 -75 -13 -61 -21 5 -3 74 -18 154 -32
80 -15 162 -31 183 -36 34 -7 39 -6 52 19 8 14 14 20 15 14 0 -15 46 -17 55
-3 3 6 11 10 16 10 6 0 7 -4 4 -10 -4 -6 12 -10 42 -10 33 0 64 -8 98 -26 32
-17 50 -23 53 -15 6 18 40 13 51 -8 6 -10 26 -26 45 -35 91 -43 186 12 186
109 0 79 -67 125 -157 108z m87 -43 c23 -13 42 -67 31 -89 -12 -21 -41 -46
-64 -55 -15 -5 -14 0 7 25 14 17 26 35 26 41 0 6 7 8 15 4 8 -3 15 -1 15 5 0
6 -8 13 -18 16 -10 2 -23 18 -29 34 -12 32 -11 34 17 19z"/>
<path d="M3113 1479 c-11 -4 -44 -9 -74 -12 -30 -4 -68 -11 -83 -17 -16 -6
-37 -8 -48 -5 -15 5 -14 1 7 -21 14 -15 36 -29 48 -31 43 -7 42 -22 -6 -68
l-47 -44 33 5 c17 3 50 12 72 20 71 25 238 54 315 54 70 1 73 2 50 15 -14 8
-20 15 -15 15 6 1 -1 6 -14 11 -16 6 -22 15 -18 28 6 25 -27 44 -64 36 -20 -5
-38 -1 -54 9 -25 16 -67 18 -102 5z"/>
<path d="M3418 1363 c7 -3 16 -2 19 1 4 3 -2 6 -13 5 -11 0 -14 -3 -6 -6z"/>
<path d="M2705 1241 c20 -20 23 -20 60 -7 l40 14 -35 -1 c-19 -1 -46 2 -60 7
l-25 8 20 -21z"/>
<path d="M3513 1093 c15 -2 39 -2 55 0 15 2 2 4 -28 4 -30 0 -43 -2 -27 -4z"/>
<path d="M3135 840 c-59 -5 -59 -6 35 -12 162 -11 468 -8 479 5 7 9 -49 12
-222 12 -128 0 -259 -2 -292 -5z"/>
<path d="M3808 754 c-4 -3 -14 -7 -24 -8 -10 -2 -20 -8 -22 -14 -2 -7 11 -8
40 -5 24 4 53 6 66 6 25 -1 29 12 6 21 -20 8 -59 8 -66 0z"/>
<path d="M4268 717 c-21 -18 -34 -37 -30 -43 4 -6 20 7 39 33 18 24 32 43 30
43 -1 0 -19 -15 -39 -33z"/>
<path d="M1451 354 c0 -11 3 -14 6 -6 3 7 2 16 -1 19 -3 4 -6 -2 -5 -13z"/>
<path d="M1422 317 c-6 -7 -7 -19 -3 -26 6 -9 10 -6 14 10 8 28 3 34 -11 16z"/>
<path d="M2973 190 c-11 -16 -10 -18 2 -14 8 4 15 12 15 20 0 19 -3 18 -17 -6z"/>
<path d="M3440 3701 c0 -6 4 -13 10 -16 6 -3 7 1 4 9 -7 18 -14 21 -14 7z"/>
<path d="M3657 3699 c7 -7 15 -10 18 -7 3 3 -2 9 -12 12 -14 6 -15 5 -6 -5z"/>
<path d="M3545 3680 c-3 -5 -1 -10 4 -10 6 0 11 5 11 10 0 6 -2 10 -4 10 -3 0
-8 -4 -11 -10z"/>
<path d="M3305 3639 c-4 -6 -5 -12 -2 -15 2 -3 7 2 10 11 7 17 1 20 -8 4z"/>
<path d="M3326 3604 c-4 -10 -1 -14 6 -12 15 5 23 28 10 28 -5 0 -13 -7 -16
-16z"/>
<path d="M3133 3580 c4 -18 37 -27 37 -10 0 6 -5 8 -11 4 -6 -3 -16 0 -21 7
-8 12 -9 11 -5 -1z"/>
<path d="M3140 3536 c0 -2 7 -9 15 -16 9 -7 15 -8 15 -2 0 5 -7 12 -15 16 -8
3 -15 4 -15 2z"/>
<path d="M5941 3282 c-7 -7 -16 -10 -22 -7 -5 4 -10 -2 -11 -12 -5 -65 -5 -73
6 -64 17 14 70 7 100 -12 26 -17 26 -18 10 -55 -20 -45 -29 -82 -20 -82 6 0
66 28 73 34 2 1 -2 18 -8 37 -6 19 -13 59 -16 89 -5 53 -25 86 -44 74 -5 -3
-9 -1 -9 4 0 14 -45 9 -59 -6z"/>
<path d="M6218 3274 c-6 -5 -31 -12 -54 -13 -18 -1 -24 -42 -11 -71 8 -17 21
-25 38 -26 14 -1 31 -4 38 -8 8 -5 11 12 11 58 0 60 -6 76 -22 60z"/>
<path d="M6231 3074 c0 -11 3 -14 6 -6 3 7 2 16 -1 19 -3 4 -6 -2 -5 -13z"/>
<path d="M5880 3061 c0 -6 4 -13 10 -16 6 -3 7 1 4 9 -7 18 -14 21 -14 7z"/>
<path d="M6033 2954 c-3 -7 -14 -16 -24 -19 -23 -8 -22 -20 18 -235 47 -253
51 -272 71 -291 11 -10 23 -15 26 -11 4 3 10 1 14 -5 4 -7 25 -9 55 -6 l47 6
0 283 0 284 -67 2 c-38 1 -83 2 -101 3 -20 1 -36 -3 -39 -11z"/>
<path d="M5887 2843 c-3 -5 0 -19 8 -29 15 -20 18 -11 6 20 -4 11 -10 15 -14
9z"/>
<path d="M5930 2570 c0 -6 -8 -14 -19 -18 -15 -6 -17 -11 -8 -32 15 -38 18
-51 21 -105 2 -27 8 -51 15 -53 6 -2 11 1 11 7 0 6 7 8 15 5 13 -6 15 5 10 80
-2 48 -9 96 -15 106 -11 21 -30 27 -30 10z"/>
<path d="M6085 2310 c-3 -5 -1 -10 4 -10 6 0 11 5 11 10 0 6 -2 10 -4 10 -3 0
-8 -4 -11 -10z"/>
<path d="M6125 2280 c-4 -7 -2 -17 4 -23 6 -6 11 -7 11 -3 0 5 6 4 13 -2 8 -7
24 -8 42 -4 19 5 25 11 17 16 -7 4 -16 4 -22 1 -5 -3 -20 1 -34 10 -17 12 -26
13 -31 5z"/>
<path d="M6194 1881 c3 -5 15 -7 26 -4 28 7 25 13 -6 13 -14 0 -23 -4 -20 -9z"/>
<path d="M6070 1740 c0 -5 5 -10 11 -10 5 0 7 5 4 10 -3 6 -8 10 -11 10 -2 0
-4 -4 -4 -10z"/>
<path d="M6162 1574 c-22 -15 -27 -40 -16 -81 5 -17 14 -23 35 -23 24 0 31 7
44 36 12 29 12 40 3 51 -22 27 -44 33 -66 17z"/>
<path d="M6214 1446 c-3 -8 -15 -18 -25 -21 -17 -6 -19 -13 -14 -53 6 -41 46
-268 59 -327 2 -11 4 75 5 192 1 133 -3 214 -9 218 -6 3 -13 -1 -16 -9z"/>
<path d="M5313 729 c91 -80 144 -248 133 -419 -5 -74 -31 -218 -52 -287 -5
-17 -2 -23 9 -23 27 0 61 138 72 290 12 173 -45 351 -140 439 -24 22 -50 41
-56 41 -7 0 9 -18 34 -41z"/>
<path d="M5380 766 c0 -2 19 -15 43 -29 71 -42 124 -132 152 -260 23 -103 14
-285 -20 -400 l-22 -78 21 3 c29 4 54 116 62 273 9 183 -26 313 -112 413 -37
44 -124 98 -124 78z"/>
<path d="M5545 745 c49 -36 108 -104 130 -150 32 -68 55 -186 55 -289 0 -77
-30 -271 -45 -296 -3 -6 3 -10 14 -10 15 0 23 10 32 43 28 103 38 319 19 416
-11 58 -56 153 -98 209 -29 38 -98 92 -116 92 -6 0 -2 -7 9 -15z"/>
<path d="M90 400 c0 -5 5 -10 11 -10 5 0 7 5 4 10 -3 6 -8 10 -11 10 -2 0 -4
-4 -4 -10z"/>
<path d="M5336 125 c-3 -9 -6 -22 -5 -28 0 -7 5 -1 10 12 5 13 8 26 5 28 -2 2
-6 -3 -10 -12z"/>
<path d="M5471 94 c0 -11 3 -14 6 -6 3 7 2 16 -1 19 -3 4 -6 -2 -5 -13z"/>
<path d="M5626 85 c-3 -9 -6 -24 -5 -33 0 -9 5 -4 10 12 9 32 6 48 -5 21z"/>
<path d="M5316 55 c-9 -26 -7 -32 5 -12 6 10 9 21 6 23 -2 3 -7 -2 -11 -11z"/>
<path d="M5461 54 c0 -11 3 -14 6 -6 3 7 2 16 -1 19 -3 4 -6 -2 -5 -13z"/>
<path d="M5518 65 c-3 -6 -8 -23 -12 -40 l-6 -30 16 28 c8 16 14 33 11 40 -2
6 -6 7 -9 2z"/>
<path d="M5821 54 c0 -11 3 -14 6 -6 3 7 2 16 -1 19 -3 4 -6 -2 -5 -13z"/>
<path d="M5366 43 c-6 -14 -5 -15 5 -6 7 7 10 15 7 18 -3 3 -9 -2 -12 -12z"/>
<path d="M5451 14 c0 -11 3 -14 6 -6 3 7 2 16 -1 19 -3 4 -6 -2 -5 -13z"/>
<path d="M5611 14 c0 -11 3 -14 6 -6 3 7 2 16 -1 19 -3 4 -6 -2 -5 -13z"/>
<path d="M5806 15 c-3 -8 -1 -15 4 -15 6 0 10 7 10 15 0 19 -6 19 -14 0z"/>
</g>
</svg>
